PathFileType	4	(X/Y/Z)	G:\GRF\jawan data\CompiledGRF\03. Mohit Kumar\0231~ac~Walking 03_markers.trc
DataRate	CameraRate	NumFrames	NumMarkers	Units	OrigDataRate	OrigDataStartFrame	OrigNumFrames
100.000000	100.000000	33	18	mm	100.000000	883	1010
Frame#	Time	c7			r should			l should			sacrum			r asis			r bar 1			r knee 1			r bar 2			r mall			r heel			r met			l asis			l bar 1			l knee 1			l bar 2			l mall			l heel			l met			
		X1	Y1	Z1	X2	Y2	Z2	X3	Y3	Z3	X4	Y4	Z4	X5	Y5	Z5	X6	Y6	Z6	X7	Y7	Z7	X8	Y8	Z8	X9	Y9	Z9	X10	Y10	Z10	X11	Y11	Z11	X12	Y12	Z12	X13	Y13	Z13	X14	Y14	Z14	X15	Y15	Z15	X16	Y16	Z16	X17	Y17	Z17	X18	Y18	Z18	

884	8.83	3236.328125	1490.214477539063	290.6553344726563	3348.4091796875	1432.097534179688	441.9137573242188	3286.006591796875	1443.541259765625	109.6403427124023	3209.0068359375	1019.436950683594	270.8897705078125	nan	nan	nan	nan	nan	nan	nan	nan	nan	nan	nan	nan	nan	nan	nan	nan	nan	nan	nan	nan	nan	nan	nan	nan	nan	nan	nan	nan	nan	nan	nan	nan	nan	nan	nan	nan	nan	nan	nan	nan	nan	nan	
885	8.84	3253.519775390625	1488.255004882813	290.0445556640625	3359.877685546875	1430.27685546875	441.4024047851563	3294.023193359375	1441.817260742188	108.3111953735352	3219.3818359375	1017.50732421875	270.1965942382813	nan	nan	nan	nan	nan	nan	nan	nan	nan	nan	nan	nan	nan	nan	nan	nan	nan	nan	nan	nan	nan	nan	nan	nan	nan	nan	nan	nan	nan	nan	nan	nan	nan	nan	nan	nan	nan	nan	nan	nan	nan	nan	
886	8.85	3259.005859375	1487.460571289063	289.5310363769531	3368.1376953125	1429.60791015625	440.2565307617188	3301.583740234375	1440.074340820313	107.3428115844727	3224.943115234375	1016.36767578125	269.2770385742188	nan	nan	nan	nan	nan	nan	nan	nan	nan	nan	nan	nan	nan	nan	nan	nan	nan	nan	nan	nan	nan	nan	nan	nan	nan	nan	nan	nan	nan	nan	nan	nan	nan	nan	nan	nan	nan	nan	nan	nan	nan	nan	
887	8.859999999999999	nan	nan	nan	3374.8603515625	1429.300537109375	439.0684814453125	3309.829345703125	1438.5712890625	106.2816314697266	3229.147705078125	1015.775939941406	268.0451049804688	nan	nan	nan	nan	nan	nan	nan	nan	nan	nan	nan	nan	nan	nan	nan	nan	nan	nan	nan	nan	nan	nan	nan	nan	nan	nan	nan	nan	nan	nan	nan	nan	nan	nan	nan	nan	nan	nan	nan	nan	nan	nan	
888	8.870000000000001	3269.836669921875	1485.770263671875	284.9378967285156	3383.527587890625	1427.569091796875	437.3828735351563	3317.681396484375	1437.02587890625	105.0264205932617	3236.2744140625	1015.011413574219	266.525146484375	nan	nan	nan	nan	nan	nan	nan	nan	nan	nan	nan	nan	nan	nan	nan	nan	nan	nan	nan	nan	nan	nan	nan	nan	nan	nan	nan	nan	nan	nan	nan	nan	nan	nan	nan	nan	nan	nan	nan	nan	nan	nan	
889	8.880000000000001	3275.353515625	1485.38330078125	284.0401611328125	3389.4365234375	1426.760864257813	435.6002807617188	3322.973876953125	1435.409423828125	103.8457717895508	3244.802490234375	1014.203918457031	265.1376647949219	nan	nan	nan	nan	nan	nan	nan	nan	nan	nan	nan	nan	nan	nan	nan	nan	nan	nan	nan	nan	nan	nan	nan	nan	nan	nan	nan	nan	nan	nan	nan	nan	nan	nan	nan	nan	nan	nan	nan	nan	nan	nan	
890	8.890000000000001	3289.071044921875	1483.990478515625	283.318115234375	3398.541748046875	1425.406982421875	434.7826232910156	3328.238037109375	1434.121459960938	102.7694778442383	3254.250732421875	1013.313049316406	264.0361938476563	nan	nan	nan	nan	nan	nan	nan	nan	nan	nan	nan	nan	nan	nan	nan	nan	nan	nan	nan	nan	nan	nan	nan	nan	nan	nan	nan	nan	nan	nan	nan	nan	nan	nan	nan	nan	nan	nan	nan	nan	nan	nan	
891	8.9	3301.190185546875	1482.706787109375	282.0964965820313	3410.64794921875	1424.296997070313	433.6907043457031	3339.8330078125	1432.831176757813	100.959716796875	3263.371337890625	1012.687805175781	262.6526489257813	nan	nan	nan	nan	nan	nan	nan	nan	nan	nan	nan	nan	nan	nan	nan	nan	nan	nan	nan	nan	nan	nan	nan	nan	nan	nan	nan	nan	nan	nan	nan	nan	nan	nan	nan	nan	nan	nan	nan	nan	nan	nan	
892	8.91	3301.039794921875	1482.743041992188	280.0565185546875	3418.880859375	1423.870727539063	432.1068115234375	3348.26220703125	1431.481201171875	99.3675537109375	3270.600341796875	1012.573486328125	261.08251953125	nan	nan	nan	nan	nan	nan	nan	nan	nan	nan	nan	nan	nan	nan	nan	nan	nan	nan	nan	nan	nan	nan	nan	nan	nan	nan	nan	nan	nan	nan	nan	nan	nan	nan	nan	nan	nan	nan	nan	nan	nan	nan	
893	8.92	3306.917724609375	1482.45166015625	277.6528015136719	3423.3193359375	1424.169067382813	430.3169860839844	3356.359375	1430.324829101563	98.01438140869141	3278.268310546875	1012.387023925781	259.3852844238281	nan	nan	nan	nan	nan	nan	nan	nan	nan	nan	nan	nan	nan	nan	nan	nan	nan	nan	nan	nan	nan	nan	nan	nan	nan	nan	nan	nan	nan	nan	nan	nan	nan	nan	nan	nan	nan	nan	nan	nan	nan	nan	
894	8.93	3314.474853515625	1481.896728515625	276.6704711914063	3431.884521484375	1423.643310546875	429.2168884277344	3364.977294921875	1429.564453125	96.47055816650391	3287.784912109375	1012.048095703125	257.7557983398438	nan	nan	nan	nan	nan	nan	nan	nan	nan	nan	nan	nan	nan	nan	nan	nan	nan	nan	nan	nan	nan	nan	nan	nan	nan	nan	nan	nan	nan	nan	nan	nan	nan	nan	nan	nan	nan	nan	nan	nan	nan	nan	
895	8.94	nan	nan	nan	3437.975341796875	1424.45703125	427.764892578125	3372.849609375	1428.693237304688	94.68464660644531	3296.3173828125	1011.708618164063	256.2960510253906	nan	nan	nan	nan	nan	nan	nan	nan	nan	nan	nan	nan	nan	nan	nan	nan	nan	nan	nan	nan	nan	nan	nan	nan	nan	nan	nan	nan	nan	nan	nan	nan	nan	nan	nan	nan	nan	nan	nan	nan	nan	nan	
896	8.950000000000001	nan	nan	nan	3446.504638671875	1426.875122070313	426.8694458007813	3381.46630859375	1428.262451171875	92.78506469726563	3307.8310546875	1010.91943359375	254.5737915039063	nan	nan	nan	nan	nan	nan	nan	nan	nan	nan	nan	nan	nan	nan	nan	nan	nan	nan	nan	nan	nan	nan	nan	nan	nan	nan	nan	nan	nan	nan	nan	nan	nan	nan	nan	nan	nan	nan	nan	nan	nan	nan	
897	8.960000000000001	3343.344482421875	1480.776611328125	269.6789855957031	3456.93115234375	1429.420532226563	426.4537658691406	3388.858154296875	1427.606689453125	91.05423736572266	3315.225830078125	1010.700134277344	252.5564117431641	nan	nan	nan	nan	nan	nan	nan	nan	nan	nan	nan	nan	nan	nan	nan	nan	nan	nan	nan	nan	nan	nan	nan	nan	nan	nan	nan	nan	nan	nan	nan	nan	nan	nan	nan	nan	nan	nan	nan	nan	nan	nan	
898	8.970000000000001	3364.350830078125	1479.194580078125	268.5742797851563	3465.404541015625	1430.416015625	424.9256286621094	3396.091064453125	1427.03173828125	89.69353485107422	3323.70458984375	1010.647766113281	250.3600769042969	nan	nan	nan	nan	nan	nan	nan	nan	nan	nan	nan	nan	nan	nan	nan	nan	nan	nan	nan	nan	nan	nan	nan	nan	nan	nan	nan	nan	nan	nan	nan	nan	nan	nan	nan	nan	nan	nan	nan	nan	nan	nan	
899	8.98	nan	nan	nan	3472.179443359375	1430.178344726563	422.474609375	3403.58349609375	1427.14794921875	88.27397918701172	3333.04638671875	1010.697387695313	248.3697052001953	nan	nan	nan	nan	nan	nan	nan	nan	nan	nan	nan	nan	nan	nan	nan	nan	nan	nan	nan	nan	nan	nan	nan	nan	nan	nan	nan	nan	nan	nan	nan	nan	nan	nan	nan	nan	nan	nan	nan	nan	nan	nan	
900	8.99	nan	nan	nan	3477.294189453125	1428.765014648438	419.1658020019531	nan	nan	nan	3343.593505859375	1010.516052246094	246.3774566650391	nan	nan	nan	nan	nan	nan	nan	nan	nan	nan	nan	nan	nan	nan	nan	nan	nan	nan	nan	nan	nan	nan	nan	nan	nan	nan	nan	nan	nan	nan	nan	nan	nan	nan	nan	nan	nan	nan	nan	nan	nan	nan	
901	9	nan	nan	nan	3482.84521484375	1428.436279296875	416.8335571289063	3426.577880859375	1426.57568359375	82.12079620361328	3353.0732421875	1010.695922851563	244.0452880859375	nan	nan	nan	nan	nan	nan	nan	nan	nan	nan	nan	nan	nan	nan	nan	nan	nan	nan	nan	nan	nan	nan	nan	nan	nan	nan	nan	nan	nan	nan	nan	nan	nan	nan	nan	nan	nan	nan	nan	nan	nan	nan	
902	9.01	nan	nan	nan	3488.99951171875	1427.569091796875	414.548583984375	3430.756591796875	1426.626342773438	81.32144165039063	3362.135986328125	1011.13818359375	241.6771545410156	nan	nan	nan	nan	nan	nan	nan	nan	nan	nan	nan	nan	nan	nan	nan	nan	nan	nan	nan	nan	nan	nan	nan	nan	nan	nan	nan	nan	nan	nan	nan	nan	nan	nan	nan	nan	nan	nan	nan	nan	nan	nan	
903	9.02	nan	nan	nan	3499.7802734375	1427.321533203125	412.2747497558594	nan	nan	nan	3371.92529296875	1011.598449707031	239.4652862548828	nan	nan	nan	nan	nan	nan	nan	nan	nan	nan	nan	nan	nan	nan	nan	nan	nan	nan	nan	nan	nan	nan	nan	nan	nan	nan	nan	nan	nan	nan	nan	nan	nan	nan	nan	nan	nan	nan	nan	nan	nan	nan	
904	9.029999999999999	nan	nan	nan	3507.31982421875	1428.143798828125	410.1499633789063	3452.639892578125	1426.880859375	75.09310150146484	3382.2294921875	1011.903747558594	237.2594146728516	nan	nan	nan	nan	nan	nan	nan	nan	nan	nan	nan	nan	nan	nan	nan	nan	nan	nan	nan	nan	nan	nan	nan	nan	nan	nan	nan	nan	nan	nan	nan	nan	nan	nan	nan	nan	nan	nan	nan	nan	nan	nan	
905	9.040000000000001	nan	nan	nan	3517.427001953125	1428.758422851563	408.0879821777344	3463.488037109375	1426.232177734375	73.63216400146484	3390.759033203125	1012.561767578125	235.2645111083984	nan	nan	nan	nan	nan	nan	nan	nan	nan	nan	nan	nan	nan	nan	nan	nan	nan	nan	nan	nan	nan	nan	nan	nan	nan	nan	nan	nan	nan	nan	nan	nan	nan	nan	nan	nan	nan	nan	nan	nan	nan	nan	
906	9.050000000000001	nan	nan	nan	3524.28857421875	1429.446411132813	406.0595092773438	3477.9453125	1424.940551757813	72.59618377685547	3402.84619140625	1013.078430175781	233.5969848632813	nan	nan	nan	nan	nan	nan	nan	nan	nan	nan	nan	nan	nan	nan	nan	nan	nan	nan	nan	nan	nan	nan	nan	nan	nan	nan	nan	nan	nan	nan	nan	nan	nan	nan	nan	nan	nan	nan	nan	nan	nan	nan	
907	9.06	nan	nan	nan	3532.942138671875	1430.300659179688	404.1439208984375	nan	nan	nan	3415.03271484375	1013.954650878906	232.0018463134766	nan	nan	nan	nan	nan	nan	nan	nan	nan	nan	nan	nan	nan	nan	nan	nan	nan	nan	nan	nan	nan	nan	nan	nan	nan	nan	nan	nan	nan	nan	nan	nan	nan	nan	nan	nan	nan	nan	nan	nan	nan	nan	
908	9.07	nan	nan	nan	3542.2587890625	1431.541625976563	402.0946350097656	3486.26806640625	1428.949829101563	66.39557647705078	3422.446533203125	1015.600463867188	230.3099365234375	nan	nan	nan	nan	nan	nan	nan	nan	nan	nan	nan	nan	nan	nan	nan	nan	nan	nan	nan	nan	nan	nan	nan	nan	nan	nan	nan	nan	nan	nan	nan	nan	nan	nan	nan	nan	nan	nan	nan	nan	nan	nan	
909	9.08	nan	nan	nan	3549.3759765625	1434.513793945313	400.9680480957031	3490.0283203125	1429.257934570313	65.79539489746094	3433.29833984375	1016.745788574219	228.5903015136719	nan	nan	nan	nan	nan	nan	nan	nan	nan	nan	nan	nan	nan	nan	nan	nan	nan	nan	nan	nan	nan	nan	nan	nan	nan	nan	nan	nan	nan	nan	nan	nan	nan	nan	nan	nan	nan	nan	nan	nan	nan	nan	
910	9.09	nan	nan	nan	3559.282470703125	1439.092407226563	400.5523681640625	nan	nan	nan	3438.10693359375	1018.698120117188	226.8176422119141	nan	nan	nan	nan	nan	nan	nan	nan	nan	nan	nan	nan	nan	nan	nan	nan	nan	nan	nan	nan	nan	nan	nan	nan	nan	nan	nan	nan	nan	nan	nan	nan	nan	nan	nan	nan	nan	nan	nan	nan	nan	nan	
911	9.1	nan	nan	nan	3567.68603515625	1441.378295898438	399.1186828613281	nan	nan	nan	3447.252685546875	1019.787048339844	225.0522918701172	nan	nan	nan	nan	nan	nan	nan	nan	nan	nan	nan	nan	nan	nan	nan	nan	nan	nan	nan	nan	nan	nan	nan	nan	nan	nan	nan	nan	nan	nan	nan	nan	nan	nan	nan	nan	nan	nan	nan	nan	nan	nan	
912	9.109999999999999	nan	nan	nan	3575.701904296875	1443.1083984375	397.4648742675781	3520.002197265625	1433.179321289063	58.55899047851563	3456.96875	1020.896545410156	223.3454895019531	nan	nan	nan	nan	nan	nan	nan	nan	nan	nan	nan	nan	nan	nan	nan	nan	nan	nan	nan	nan	nan	nan	nan	nan	nan	nan	nan	nan	nan	nan	nan	nan	nan	nan	nan	nan	nan	nan	nan	nan	nan	nan	
913	9.120000000000001	nan	nan	nan	3583.48095703125	1444.578125	395.7610778808594	3525.70654296875	1433.617431640625	57.14557266235352	3464.998779296875	1022.045043945313	221.2989807128906	nan	nan	nan	nan	nan	nan	nan	nan	nan	nan	nan	nan	nan	nan	nan	nan	nan	nan	nan	nan	nan	nan	nan	nan	nan	nan	nan	nan	nan	nan	nan	nan	nan	nan	nan	nan	nan	nan	nan	nan	nan	nan	
914	9.130000000000001	nan	nan	nan	3589.1689453125	1444.800903320313	393.132080078125	3530.61376953125	1434.011474609375	56.41945266723633	3474.787353515625	1022.297485351563	218.9834136962891	nan	nan	nan	nan	nan	nan	nan	nan	nan	nan	nan	nan	nan	nan	nan	nan	nan	nan	nan	nan	nan	nan	nan	nan	nan	nan	nan	nan	nan	nan	nan	nan	nan	nan	nan	nan	nan	nan	nan	nan	nan	nan	
915	9.140000000000001	nan	nan	nan	3592.88623046875	1443.220336914063	389.6213073730469	nan	nan	nan	3484.24951171875	1022.393920898438	216.7244262695313	nan	nan	nan	nan	nan	nan	nan	nan	nan	nan	nan	nan	nan	nan	nan	nan	nan	nan	nan	nan	nan	nan	nan	nan	nan	nan	nan	nan	nan	nan	nan	nan	nan	nan	nan	nan	nan	nan	nan	nan	nan	nan	
916	9.15	nan	nan	nan	3600.162109375	1442.732543945313	388.07958984375	nan	nan	nan	3492.832275390625	1022.675842285156	214.2075500488281	nan	nan	nan	nan	nan	nan	nan	nan	nan	nan	nan	nan	nan	nan	nan	nan	nan	nan	nan	nan	nan	nan	nan	nan	nan	nan	nan	nan	nan	nan	nan	nan	nan	nan	nan	nan	nan	nan	nan	nan	nan	nan	
